PathFileType	4	(X/Y/Z)	s09c0103.trc
DataRate	CameraRate	NumFrames	NumMarkers	Units	OrigDataRate	OrigDataStartFrame	OrigNumFrames
200	200	6	50	mm	200	1500	2000
Frame#	Time	racr			lacr			c7			jug			rlel			rdr			llel			ldr			s2			lic			ric			lasi			rasi			rpsi			lpsi			rgt			lgt			rth1			rth2			rth3			rth4			rlfc			rmfc			rsh1			rsh2			rsh3			rsh4			rlmal			rmmal			rcal			rtoe			rmt5			lth1			lth2			lth4			lth3			llfc			lmfc			llmal			lmmal			lcal			lmt5			lsh1			lsh2			lsh3			lsh4			ltoe			SBIKE			LBIKE			RBIKE			
		X1	Y1	Z1	X2	Y2	Z2	X3	Y3	Z3	X4	Y4	Z4	X5	Y5	Z5	X6	Y6	Z6	X7	Y7	Z7	X8	Y8	Z8	X9	Y9	Z9	X10	Y10	Z10	X11	Y11	Z11	X12	Y12	Z12	X13	Y13	Z13	X14	Y14	Z14	X15	Y15	Z15	X16	Y16	Z16	X17	Y17	Z17	X18	Y18	Z18	X19	Y19	Z19	X20	Y20	Z20	X21	Y21	Z21	X22	Y22	Z22	X23	Y23	Z23	X24	Y24	Z24	X25	Y25	Z25	X26	Y26	Z26	X27	Y27	Z27	X28	Y28	Z28	X29	Y29	Z29	X30	Y30	Z30	X31	Y31	Z31	X32	Y32	Z32	X33	Y33	Z33	X34	Y34	Z34	X35	Y35	Z35	X36	Y36	Z36	X37	Y37	Z37	X38	Y38	Z38	X39	Y39	Z39	X40	Y40	Z40	X41	Y41	Z41	X42	Y42	Z42	X43	Y43	Z43	X44	Y44	Z44	X45	Y45	Z45	X46	Y46	Z46	X47	Y47	Z47	X48	Y48	Z48	X49	Y49	Z49	X50	Y50	Z50	
1500	7.5000	464.289917	1244.560241	-58.878984	553.219402	1255.508935	-358.591871	487.031018	1295.287548	-205.916719	452.163258	1159.545497	-229.304309	472.208015	1000.497285	12.300838	691.020693	883.190971	-44.324066	512.794593	1020.070129	-508.030452	699.247712	871.678386	-426.467177	3.621141	1124.529156	-285.286521	145.495239	1114.648725	-425.456602	135.416836	1152.839169	-132.486043	185.257110	1064.489750	-395.347840	184.705276	1109.406262	-148.383849	23.551406	1163.547940	-227.845043	37.385376	1155.756988	-340.973168	140.827588	1051.268692	-74.608605	105.915335	966.305472	-447.360245	266.550641	1010.581795	-92.340136	353.033226	1006.541692	-107.376614	426.432839	957.628229	-104.183729	360.073572	1027.346399	-137.242080	510.808673	882.708943	-132.840020	489.447808	853.789229	-232.297350	443.168334	805.765462	-97.355387	413.819824	720.965619	-101.131944	347.984602	663.671847	-91.627376	435.370837	706.049997	-131.245875	289.030877	574.886799	-81.030189	287.171992	583.225744	-158.919939	200.175043	558.261747	-112.134712	454.827771	485.364576	-133.502285	375.776761	489.548967	-63.808234	175.644527	846.121406	-442.892500	234.890437	785.649042	-434.343076	268.306459	803.020254	-429.155668	256.699195	699.360714	-417.595773	289.394412	609.988901	-396.691585	303.442425	596.954338	-299.419035	148.095138	273.674412	-407.648173	171.678735	274.940062	-338.673371	78.197508	257.807077	-369.033716	223.346491	162.400235	-429.846813	251.267038	520.220981	-420.215411	240.587565	434.756835	-410.623862	188.056568	363.421718	-412.378432	264.358227	428.082924	-379.861901	316.304389	148.536684	-362.774628	-65.161193	851.103290	-242.127141	21.155169	83.788203	-442.438975	21.091090	84.092654	-44.066942	
1501	7.5050	464.751431	1244.766823	-58.973426	552.622204	1255.148141	-358.739433	486.997865	1295.448709	-206.296180	451.967748	1159.718335	-229.478879	472.215932	1000.933461	12.477757	690.740521	883.381470	-44.488468	510.553206	1019.349804	-507.884513	699.077944	871.599691	-426.616769	3.491892	1126.001381	-284.138434	144.571447	1115.746922	-424.646753	135.315467	1154.249846	-131.909996	184.566547	1065.511822	-394.684990	184.572095	1110.598220	-147.737688	23.527579	1165.141260	-226.920818	37.132032	1156.811628	-340.097473	140.290856	1052.537494	-73.933693	105.396211	967.564182	-446.386463	266.233590	1009.321583	-91.338830	352.759689	1004.345743	-106.266785	425.586340	954.778015	-103.030958	360.157631	1025.228264	-136.218801	508.161744	878.752313	-132.346925	487.909528	850.389157	-231.225146	443.534447	800.598753	-96.243651	415.770922	715.259453	-100.313462	351.023448	656.628245	-90.824152	437.278022	700.930947	-130.727504	294.402957	566.002188	-81.491995	291.757697	575.364505	-158.542344	205.313919	546.495557	-112.085591	463.005395	484.796683	-133.400265	383.928937	485.463277	-63.455808	176.780340	847.375251	-441.378046	236.736162	787.615531	-433.025964	270.024791	805.346581	-428.439211	259.737211	701.655347	-415.961165	292.921106	612.297312	-395.653845	306.674768	599.555973	-297.870914	141.928678	280.133136	-407.290991	165.647905	280.636585	-338.131067	71.728449	265.739530	-368.688320	214.430181	166.820949	-429.545880	252.452338	523.583492	-419.279186	239.210758	438.509615	-409.823242	184.570039	368.814530	-411.780037	262.615173	431.208987	-379.050926	306.874392	151.081742	-362.740226	-65.147586	851.119088	-242.047699	21.173749	83.811735	-442.423359	21.112098	84.092025	-44.043628	
1502	7.5100	465.286605	1245.155117	-59.203392	551.931063	1254.725458	-359.166705	487.044330	1295.540494	-206.919033	451.747740	1159.810214	-229.665387	472.312197	1001.381533	12.455775	690.536632	883.627153	-44.733289	509.251466	1018.324029	-507.359979	698.777966	871.547138	-426.730152	3.155050	1127.763499	-282.327865	143.532261	1116.785845	-423.701012	135.203680	1155.397313	-131.290123	183.829906	1066.412219	-393.952721	184.454247	1111.483219	-147.013214	23.599889	1166.852084	-225.794855	36.777005	1157.910774	-338.964094	139.710898	1053.241269	-73.186068	104.940836	968.795793	-445.384782	266.075864	1007.368583	-90.075222	352.661173	1001.641841	-104.716341	424.719990	951.092121	-101.703728	360.046838	1022.477626	-134.155628	506.445779	874.365242	-131.303032	486.352352	845.630173	-229.547716	443.620401	794.484248	-94.870458	417.453128	708.532554	-99.290020	353.858995	648.807518	-89.836484	439.019144	694.940626	-129.981859	299.359142	556.981149	-81.007072	296.119840	566.723365	-158.077801	210.309137	534.019065	-112.165713	470.741715	483.437894	-133.411269	391.778811	480.640618	-63.160025	178.199334	848.757963	-439.853505	238.916905	789.703699	-431.580065	272.106125	808.080795	-427.419188	263.212612	704.203364	-414.538785	296.865865	614.841773	-394.575102	309.498044	602.602114	-296.356787	136.103016	287.065245	-407.047392	159.817057	286.909950	-337.617666	65.589991	274.464376	-368.312981	203.927583	170.644509	-427.899101	254.021529	527.251636	-418.413091	238.292434	442.644228	-409.177803	181.405054	374.510715	-411.323095	261.074084	434.485128	-377.990611	297.915672	153.646228	-362.051643	-65.130031	851.139236	-241.960193	21.156268	83.857541	-442.395759	21.119101	84.105217	-44.026112	
1503	7.5150	465.706475	1245.122526	-60.212038	551.164783	1254.128685	-359.882860	487.145781	1295.885161	-207.731750	450.550263	1160.568364	-230.856925	472.551726	1001.915779	12.261480	690.489123	883.646515	-45.091862	507.800707	1017.084817	-506.834127	698.510999	871.530745	-426.830683	2.995957	1128.892466	-281.065677	142.503900	1117.764713	-422.641547	135.350206	1156.401016	-130.766459	183.113918	1067.235913	-393.183986	184.269693	1112.267057	-146.272798	23.456426	1167.766057	-224.489265	36.472020	1159.195403	-337.186342	139.143326	1053.380636	-72.530301	104.861221	970.114688	-444.690037	265.789123	1004.706938	-88.683831	352.031511	998.315984	-102.636161	424.028890	946.490012	-100.552696	360.090404	1018.944072	-132.044941	502.275648	869.082872	-127.665846	484.573641	840.549000	-228.003129	443.462940	787.501744	-93.085101	418.895394	701.202627	-98.098459	356.480835	640.055865	-88.857237	440.409449	687.896533	-128.955709	304.129766	547.175876	-80.546595	300.729747	557.111594	-157.944887	215.442379	520.894648	-112.234391	478.002218	481.396099	-133.292630	399.464187	475.026517	-62.947368	179.919793	850.344771	-438.499724	241.522191	792.216556	-430.159181	274.404361	811.088785	-426.075132	267.061283	707.124232	-413.430769	301.319853	617.481046	-393.569830	312.788924	605.549701	-295.311459	130.606715	294.374659	-406.881194	154.352939	293.638623	-337.180408	59.776521	283.449752	-368.007191	195.516444	176.322956	-427.599618	255.895437	531.070939	-417.670673	237.544791	446.921182	-408.501380	178.611992	380.672429	-410.901667	259.967326	438.017073	-376.941846	289.180868	156.900655	-361.679304	-65.097347	851.171041	-241.873495	21.143119	83.838284	-442.367863	21.111412	84.095350	-44.034125	
1504	7.5200	466.350547	1245.879703	-60.560282	550.291450	1253.596193	-360.902170	487.287458	1296.150329	-208.895557	450.125489	1160.871840	-231.301528	472.905836	1002.609960	11.937820	690.481148	883.785353	-45.324092	506.166790	1015.771204	-506.419767	698.222917	871.539063	-426.934914	2.831122	1129.753380	-279.572713	141.407019	1118.559200	-421.494931	135.314858	1157.169055	-129.713362	182.460704	1067.877695	-392.315787	184.184191	1112.761818	-145.146147	23.963212	1168.619313	-223.318184	36.116303	1159.870749	-336.152566	138.538939	1052.958788	-71.732070	104.631620	971.274006	-443.560496	265.527463	1001.341888	-86.887755	351.846155	993.851174	-100.853355	422.272969	941.026120	-97.758685	360.238886	1014.678351	-129.928758	502.723563	862.520235	-128.261919	483.570059	834.356285	-227.174047	442.967382	779.756690	-91.260505	420.094829	692.805107	-96.947328	358.855834	630.692830	-87.902348	441.667181	680.585352	-128.069289	308.726929	536.628504	-80.186189	305.033852	547.012214	-157.586842	220.597537	507.059147	-112.257822	484.763774	478.538450	-133.144828	406.662608	468.817256	-62.653908	181.985653	852.176470	-437.277856	244.451982	795.187365	-428.707936	276.938596	814.437989	-424.297957	271.147638	710.220936	-412.494162	306.094021	620.218634	-392.597839	316.211885	608.598049	-294.466495	125.449744	302.012735	-406.537676	149.398168	300.692726	-336.860244	54.346506	292.787884	-367.798217	189.414357	184.177866	-429.097673	257.936121	535.070698	-417.024309	237.052416	451.559777	-407.933711	176.090064	387.135538	-410.534774	258.899586	441.944140	-376.168697	280.738476	160.575666	-361.542260	-65.041545	851.174762	-241.874491	21.151125	83.899190	-442.381998	21.103918	84.090978	-44.030798	
1505	7.5250	467.321994	1247.109251	-60.534985	549.374006	1252.998941	-362.343425	487.495040	1296.461942	-210.088707	449.997922	1161.079967	-231.246639	473.366812	1003.410513	11.524507	690.531227	884.045501	-45.372872	504.457086	1014.275081	-505.984427	697.923073	871.572404	-427.067862	3.202294	1129.848943	-278.234585	140.329919	1119.232616	-420.281877	135.229144	1157.617559	-128.638971	181.820157	1068.585972	-391.350771	184.047536	1113.105403	-143.763201	24.219430	1169.241123	-221.979456	34.758452	1162.336787	-331.507968	137.985434	1051.882368	-70.724389	104.559980	972.402697	-442.621374	265.177188	997.373065	-84.705669	351.583419	988.490025	-98.891437	421.405457	934.098569	-96.468454	360.284255	1009.775025	-127.322832	500.680985	855.556227	-126.643756	481.476465	827.257556	-224.777712	442.189001	771.328491	-89.454547	420.997508	684.062996	-95.790411	360.962876	620.600811	-87.022873	442.656430	672.473100	-126.950867	313.300564	525.426026	-79.972841	308.993227	536.383643	-157.320356	225.799069	492.654545	-112.159930	490.728715	474.945397	-133.216849	413.300055	461.945905	-62.309297	184.349267	854.291384	-436.218866	247.609046	798.304347	-427.147646	279.663018	818.006693	-422.176018	275.554079	713.622259	-411.588600	311.028446	623.189994	-391.791023	319.659111	611.620422	-293.777252	120.670920	310.178213	-406.476231	144.659032	308.287385	-336.610491	49.333427	302.591277	-367.537447	181.847955	190.929406	-428.993029	260.162688	539.302042	-416.453622	236.751064	456.428991	-407.535158	173.774168	393.874798	-410.253164	258.072970	446.185945	-375.503202	272.553558	165.137354	-361.354740	-65.025853	851.183430	-241.537753	21.144008	83.926338	-442.384320	21.081816	84.066742	-44.032773	
